<svg viewBox="0 0 22 22" xmlns="http://www.w3.org/2000/svg"><path d="M13.246 1.323c-1.966.179-3.694 1.529-4.338 3.389-.23.665-.288 1.222-.29 2.776l-.001 1.016-1.25.01-1.25.011-.103.116c-.145.162-.155.331-.141 2.414.011 1.668.016 1.766.083 1.878.132.217.22.23 1.505.23h1.153l.011 3.419c.011 3.764-.001 3.571.232 3.696.15.08 4.136.08 4.286 0 .233-.125.221.068.232-3.696l.011-3.419 1.071-.001c.589-.001 1.142-.016 1.229-.032a.52.52 0 0 0 .38-.295c.019-.05.25-.931.513-1.959.355-1.387.473-1.903.458-2-.026-.159-.184-.313-.379-.367-.088-.024-.72-.039-1.707-.039h-1.568V6.201l.089-.103.088-.103 1.571-.018c1.71-.02 1.701-.019 1.83-.233.067-.11.071-.21.071-2.114s-.004-2.004-.071-2.114c-.13-.215-.117-.214-1.818-.219-.857-.003-1.711.009-1.897.026M15.95 3.63v1.247h-1.073c-1.167.001-1.485.03-1.77.16-.242.111-.554.425-.666.671-.143.313-.162.566-.15 2.085.012 1.558.012 1.56.225 1.688.108.066.215.071 1.705.082 1.216.008 1.585.021 1.573.055-.008.024-.153.583-.321 1.243l-.306 1.199-1.268.011c-1.388.012-1.42.016-1.536.229-.056.102-.062.415-.071 3.549l-.01 3.438H9.717l-.001-3.365c0-2.181-.013-3.411-.037-3.499a.548.548 0 0 0-.15-.229l-.111-.094H6.967V9.57h1.146c.672 0 1.201-.016 1.281-.038a.426.426 0 0 0 .22-.156l.084-.118.02-1.76c.021-1.964.024-1.987.295-2.652.528-1.291 1.718-2.213 3.15-2.438.051-.008.698-.017 1.44-.02l1.347-.005V3.63" fill-rule="evenodd" /></svg>
