<svg xmlns="http://www.w3.org/2000/svg" xmlns:xlink="http://www.w3.org/1999/xlink"><symbol id="icon_facebook"><g fill="black"><path d="M13.246 1.323c-1.966.179-3.694 1.529-4.338 3.389-.23.665-.288 1.222-.29 2.776l-.001 1.016-1.25.01-1.25.011-.103.116c-.145.162-.155.331-.141 2.414.011 1.668.016 1.766.083 1.878.132.217.22.23 1.505.23h1.153l.011 3.419c.011 3.764-.001 3.571.232 3.696.15.08 4.136.08 4.286 0 .233-.125.221.068.232-3.696l.011-3.419 1.071-.001c.589-.001 1.142-.016 1.229-.032a.52.52 0 0 0 .38-.295c.019-.05.25-.931.513-1.959.355-1.387.473-1.903.458-2-.026-.159-.184-.313-.379-.367-.088-.024-.72-.039-1.707-.039h-1.568V6.201l.089-.103.088-.103 1.571-.018c1.71-.02 1.701-.019 1.83-.233.067-.11.071-.21.071-2.114s-.004-2.004-.071-2.114c-.13-.215-.117-.214-1.818-.219-.857-.003-1.711.009-1.897.026M15.95 3.63v1.247h-1.073c-1.167.001-1.485.03-1.77.16-.242.111-.554.425-.666.671-.143.313-.162.566-.15 2.085.012 1.558.012 1.56.225 1.688.108.066.215.071 1.705.082 1.216.008 1.585.021 1.573.055-.008.024-.153.583-.321 1.243l-.306 1.199-1.268.011c-1.388.012-1.42.016-1.536.229-.056.102-.062.415-.071 3.549l-.01 3.438H9.717l-.001-3.365c0-2.181-.013-3.411-.037-3.499a.548.548 0 0 0-.15-.229l-.111-.094H6.967V9.57h1.146c.672 0 1.201-.016 1.281-.038a.426.426 0 0 0 .22-.156l.084-.118.02-1.76c.021-1.964.024-1.987.295-2.652.528-1.291 1.718-2.213 3.15-2.438.051-.008.698-.017 1.44-.02l1.347-.005V3.63" fill-rule="evenodd"/></g></symbol><symbol id="icon_instagram" viewBox="0 0 16 16">
<path d="M7.98438 0.0625C9.31771 0.0625 10.4062 0.078125 11.25 0.109375C11.9688 0.140625 12.6094 0.265625 13.1719 0.484375C13.7135 0.692708 14.1823 0.994792 14.5781 1.39062C14.974 1.78646 15.276 2.25521 15.4844 2.79687C15.7031 3.35937 15.8281 4 15.8594 4.71875C15.8906 5.5625 15.9062 6.65104 15.9062 7.98437C15.9062 9.31771 15.8906 10.4062 15.8594 11.25C15.8281 11.9687 15.7031 12.6094 15.4844 13.1719C15.276 13.7135 14.974 14.1823 14.5781 14.5781C14.1823 14.974 13.7135 15.276 13.1719 15.4844C12.6094 15.7031 11.9688 15.8281 11.25 15.8594C10.4062 15.8906 9.31771 15.9062 7.98438 15.9062C6.65104 15.9062 5.5625 15.8906 4.71875 15.8594C4 15.8281 3.35938 15.7031 2.79688 15.4844C2.25521 15.276 1.78646 14.974 1.39062 14.5781C0.994792 14.1823 0.692708 13.7135 0.484375 13.1719C0.265625 12.6094 0.140625 11.9687 0.109375 11.25C0.078125 10.4062 0.0625 9.31771 0.0625 7.98437C0.0625 6.65104 0.078125 5.5625 0.109375 4.71875C0.140625 4 0.265625 3.35937 0.484375 2.79687C0.692708 2.25521 0.994792 1.78646 1.39062 1.39062C1.78646 0.994792 2.25521 0.692708 2.79688 0.484375C3.35938 0.265625 4 0.140625 4.71875 0.109375C5.5625 0.078125 6.65104 0.0625 7.98438 0.0625ZM7.98438 1.09375C6.59896 1.09375 5.46875 1.10937 4.59375 1.14062C4.03125 1.16146 3.51042 1.26042 3.03125 1.4375C2.28125 1.75 1.75 2.28125 1.4375 3.03125C1.26042 3.51042 1.16146 4.03125 1.14062 4.59375C1.10938 5.46875 1.09375 6.59896 1.09375 7.98437C1.09375 9.36979 1.10938 10.5 1.14062 11.375C1.16146 11.9375 1.26042 12.4583 1.4375 12.9375C1.75 13.6875 2.28125 14.2187 3.03125 14.5312C3.51042 14.7083 4.03125 14.8073 4.59375 14.8281C5.46875 14.8594 6.59896 14.875 7.98438 14.875C9.36979 14.875 10.5 14.8594 11.375 14.8281C11.9375 14.8073 12.4583 14.7083 12.9375 14.5312C13.6875 14.2187 14.2188 13.6875 14.5312 12.9375C14.7083 12.4583 14.8073 11.9375 14.8281 11.375C14.8594 10.5 14.875 9.36979 14.875 7.98437C14.875 6.59896 14.8594 5.46875 14.8281 4.59375C14.8073 4.03125 14.7083 3.51042 14.5312 3.03125C14.2188 2.28125 13.6875 1.75 12.9375 1.4375C12.4583 1.26042 11.9375 1.16146 11.375 1.14062C10.5 1.10937 9.36979 1.09375 7.98438 1.09375ZM7.98438 11.1562C8.85938 11.1562 9.60677 10.8464 10.2266 10.2266C10.8464 9.60677 11.1562 8.85937 11.1562 7.98437C11.1562 7.10937 10.8464 6.36198 10.2266 5.74219C9.60677 5.1224 8.85938 4.8125 7.98438 4.8125C7.10938 4.8125 6.36198 5.1224 5.74219 5.74219C5.1224 6.36198 4.8125 7.10937 4.8125 7.98437C4.8125 8.85937 5.1224 9.60677 5.74219 10.2266C6.36198 10.8464 7.10938 11.1562 7.98438 11.1562ZM7.98438 3.92187C9.10938 3.92187 10.0677 4.31771 10.8594 5.10937C11.651 5.90104 12.0469 6.85937 12.0469 7.98437C12.0469 9.10937 11.651 10.0677 10.8594 10.8594C10.0677 11.651 9.10938 12.0469 7.98438 12.0469C6.85938 12.0469 5.90104 11.651 5.10938 10.8594C4.31771 10.0677 3.92188 9.10937 3.92188 7.98437C3.92188 6.85937 4.31771 5.90104 5.10938 5.10937C5.90104 4.31771 6.85938 3.92187 7.98438 3.92187ZM13.1719 3.76562C13.1719 4.02604 13.0781 4.2474 12.8906 4.42969C12.7031 4.61198 12.474 4.70312 12.2031 4.70312C11.9427 4.70312 11.7214 4.61198 11.5391 4.42969C11.3568 4.2474 11.2656 4.02604 11.2656 3.76562C11.2656 3.49479 11.3568 3.26562 11.5391 3.07812C11.7214 2.89062 11.9427 2.79687 12.2031 2.79687C12.4635 2.79687 12.6901 2.89323 12.8828 3.08594C13.0755 3.27865 13.1719 3.50521 13.1719 3.76562Z"/>
</symbol><symbol id="icon_vk" viewBox="0 0 28 22"><g fill="none">
<path d="M0.0853271 5.48988C0.0853271 4.63485 0.60043 4.17381 1.63064 4.10674L5.60048 4.13189C5.86691 4.13189 6.04453 4.25763 6.13334 4.50911C6.54187 5.76651 6.99925 6.85206 7.50547 7.76577C8.01169 8.67948 8.67333 9.7315 9.49039 10.9218C9.56144 11.0727 9.6769 11.1482 9.83675 11.1482C9.96109 11.1482 10.0588 11.0895 10.1298 10.9721L10.2098 10.6955L10.2364 6.34491C10.2364 6.04313 10.1609 5.84195 10.0099 5.74136C9.85896 5.64077 9.5792 5.56532 9.17067 5.51503C8.85096 5.46473 8.6911 5.28031 8.6911 4.96177C8.6911 4.89471 8.69998 4.84442 8.71774 4.81089C9.09074 3.72114 10.1565 3.17627 11.9149 3.17627L13.4069 3.15112C14.0819 3.15112 14.6414 3.31039 15.0855 3.62893C15.5295 3.94747 15.7516 4.45043 15.7516 5.13781V10.8464C15.8759 10.9302 15.9913 10.9721 16.0979 10.9721C16.3643 10.9721 16.5953 10.8212 16.7906 10.5195C18.7445 7.93761 19.8013 6.21079 19.9612 5.33899C19.9612 5.32223 19.979 5.28031 20.0145 5.21325C20.1388 4.96177 20.3431 4.74383 20.6273 4.55941C20.9115 4.37499 21.1601 4.24925 21.3733 4.18219C21.4443 4.14866 21.5243 4.13189 21.6131 4.13189H25.7428L26.0092 4.15704C26.3644 4.15704 26.6398 4.31631 26.8351 4.63485C26.9062 4.73544 26.955 4.84442 26.9817 4.96177C27.0083 5.07913 27.0261 5.19649 27.035 5.31384C27.0438 5.4312 27.0483 5.49826 27.0483 5.51503V5.69106C26.924 6.37844 26.6087 7.11192 26.1025 7.89151C25.5962 8.67109 24.9524 9.51355 24.1708 10.4189C23.3893 11.3242 22.9008 11.9194 22.7054 12.2044C22.5456 12.4056 22.4657 12.59 22.4657 12.7576C22.4657 12.8918 22.5367 13.0426 22.6788 13.2103L26.5687 17.8375C26.7819 18.1058 26.8884 18.3992 26.8884 18.7177C26.8884 19.1033 26.7286 19.4218 26.4089 19.6733C26.0891 19.9248 25.7072 20.0673 25.2632 20.1008L24.8103 20.126H20.7605C20.7427 20.126 20.7072 20.1302 20.6539 20.1385C20.6006 20.1469 20.5651 20.1511 20.5473 20.1511C20.1566 20.1511 19.7924 19.9919 19.455 19.6733C19.3306 19.5392 18.4958 18.55 16.9505 16.7059C16.8617 16.5885 16.7374 16.4795 16.5775 16.3789C16.5064 16.6472 16.4132 17.0328 16.2977 17.5357C16.1823 18.0387 16.0979 18.3992 16.0446 18.6171L15.9647 19.0446C15.7871 19.6314 15.4141 19.9835 14.8457 20.1008L14.4727 20.126H11.8616C10.3874 20.126 8.91756 19.4889 7.45218 18.2147C5.98681 16.9406 4.66797 15.2934 3.49566 13.2732C2.32336 11.2529 1.23099 8.90162 0.218543 6.21917C0.129733 6.00122 0.0853271 5.75813 0.0853271 5.48988ZM16.0979 12.0032C15.7249 12.0032 15.3874 11.9068 15.0855 11.714C14.7835 11.5212 14.6325 11.2571 14.6325 10.9218V5.13781C14.6325 4.8025 14.5437 4.5636 14.3661 4.42109C14.1885 4.27859 13.8776 4.20734 13.4336 4.20734L11.9149 4.25763C11.1512 4.25763 10.5739 4.38337 10.1831 4.63485C10.9647 4.98692 11.3554 5.55694 11.3554 6.34491V10.7709C11.3199 11.1901 11.1423 11.538 10.8226 11.8146C10.5028 12.0912 10.1476 12.2295 9.75682 12.2295C9.22396 12.2295 8.81543 11.9864 8.53124 11.5002C7.14579 9.52193 6.11558 7.64422 5.44062 5.8671L5.20083 5.21325L1.65728 5.18811C1.42637 5.18811 1.29759 5.20068 1.27095 5.22583C1.24431 5.25098 1.23099 5.32223 1.23099 5.43958C1.23099 5.59047 1.24875 5.74974 1.28427 5.9174L1.84378 7.32568C3.3358 10.9637 4.9566 13.8306 6.70617 15.9263C8.45575 18.0219 10.1742 19.0698 11.8616 19.0698H14.526C14.6325 19.0698 14.7125 19.0404 14.7658 18.9817C14.819 18.9231 14.8634 18.8099 14.899 18.6422L14.9523 18.3908L15.4585 16.1778C15.6006 15.876 15.7249 15.6748 15.8315 15.5742C16.0269 15.3898 16.2578 15.2976 16.5242 15.2976C16.9505 15.2976 17.3857 15.5407 17.8297 16.0269L20.0944 18.7428C20.2365 18.9608 20.3875 19.0698 20.5473 19.0698H24.9435C25.4763 19.0698 25.7428 18.944 25.7428 18.6925C25.7428 18.6087 25.7161 18.5249 25.6628 18.4411L21.7996 13.8893C21.4976 13.5372 21.3466 13.16 21.3466 12.7576C21.3466 12.3553 21.4887 11.9697 21.7729 11.6008C22.0038 11.2655 22.4523 10.7081 23.1184 9.92849C23.7845 9.1489 24.3662 8.41961 24.8635 7.74062C25.3609 7.06163 25.6895 6.4455 25.8493 5.89225L25.9293 5.56532C25.9115 5.53179 25.9026 5.47731 25.9026 5.40186C25.9026 5.32642 25.8937 5.26355 25.876 5.21325H21.693C21.4266 5.31384 21.2134 5.46473 21.0536 5.66592L20.8937 6.14373C20.4496 7.30053 19.2862 9.08603 17.4034 11.5002C17.0304 11.8355 16.5953 12.0032 16.0979 12.0032Z"/>
</g></symbol></svg>